#!OML:ASF E:/inclinewalkrobotboard/Project1/Captureday1/Session1/subject1.ASF
:FULLY-SPECIFIED
:DEGREES
13
root 0 0 0 1.426700355956033 -3.539905376252938 1.8888771032496432
lowerback 11.96698666406392 0.8935215890474955 -0.09641415327214009
upperback -4.4342455561128915 1.1202805491333292 -0.6292271444915606
thorax -11.553946877120397 0.5145887324402101 -0.8695919234766089
lowerneck -6.096148878101907 1.6525715647838897 4.62379854652555
upperneck 18.447487363406797 3.156570145071917 -8.269075311913848
head 6.77975905393948 1.1633147308256242 -3.1889949305803813
rclavicle -1.7444757764900695E-16 -9.704841138766514E-16
rhumerus 22.224549030832613 15.948626034126706 -46.54254047727863
rradius 74.31105141433459
rwrist 27.891405079783453
rhand -34.85565148858666 -59.75813749083949
rfingers 7.12502
rthumb -8.015567125496155 -89.57065107617554
lclavicle -1.7267984196035974E-16 -9.489665516744767E-16
lhumerus 22.79673457656808 -12.796564620221465 43.62955527692871
lradius 71.32345851384605
lwrist -23.638687591723844
lhand -45.337815119092284 -73.20227674157947
lfingers 7.12502
lthumb -18.09499961164746 -43.98415560852142
rfemur -25.565488457473798 -2.136586205409454 16.713841818097162
rtibia 54.65750913305857
rfoot -27.279508370626544 -16.442764110834077
rtoes -17.62889002068075
lfemur -21.825794376668505 1.2377084281280848 -18.176219136910447
ltibia 48.67429412275107
lfoot -23.754205063510234 -3.606375653445108
ltoes -15.440729793370249
14
root 0 0 0 1.4271522234456775 -3.5418515156940082 1.8865885489857062
lowerback 11.967131610145232 0.8946577827767035 -0.09367460419832607
upperback -4.434890882263957 1.1220876068937398 -0.6294024615452946
thorax -11.554586856537183 0.5154036446165248 -0.8715860140069082
lowerneck -6.095312564951008 1.652707371435439 4.624711926628952
upperneck 18.447481608409266 3.1569345688256445 -8.269694469501665
head 6.779653858173332 1.163467786254098 -3.1893536488198677
rclavicle -1.7434852536713693E-16 -9.704660226422534E-16
rhumerus 22.227888107698966 15.950806755064432 -46.54049927288284
rradius 74.31415633861292
rwrist 27.892918916256534
rhand -34.8567330691774 -59.76334094616074
rfingers 7.12502
rthumb -8.01663936190378 -89.5758493021493
lclavicle -1.727263716165316E-16 -9.489583122335715E-16
lhumerus 22.79385334805114 -12.795824378500933 43.631596637801835
lradius 71.32118183239662
lwrist -23.637145339217735
lhand -45.336818125508245 -73.19723460942822
lfingers 7.12502
lthumb -18.094043639691193 -43.97915678816153
rfemur -25.573454237645535 -2.1404053248209127 16.708168625063653
rtibia 54.66634070553219
rfoot -27.289643060988617 -16.448268762568382
rtoes -17.64029715415006
lfemur -21.81906399103797 1.2358839376077462 -18.1774275642552
ltibia 48.66392904117474
lfoot -23.746714075083837 -3.6054192469505146
ltoes -15.434376186244801
15
root 0 0 0 1.4274251525607853 -3.5424929165783805 1.8860157863938223
lowerback 11.967215371883768 0.8950307452855117 -0.0928731265207865
upperback -4.435251877104461 1.1226600887921592 -0.6295367652924914
thorax -11.554990212049216 0.5156641601744757 -0.8722658850225388
lowerneck -6.0947233234848905 1.6528999088246679 4.625207009297346
upperneck 18.44743401857807 3.1572759893298117 -8.270168843844072
head 6.779545685213321 1.1636110663618022 -3.18956050188501
rclavicle -1.7429576704482757E-16 -9.70448704661428E-16
rhumerus 22.229484230680896 15.951852526727082 -46.53955997845915
rradius 74.31564981113533
rwrist 27.89363515291854
rhand -34.85726459751652 -59.76585824893744
rfingers 7.12502
rthumb -8.017162806921053 -89.57832452926479
lclavicle -1.7278057240918053E-16 -9.489985848499994E-16
lhumerus 22.790936584300585 -12.79509131482128 43.63361609171949
lradius 71.318891451942
lwrist -23.635619365730918
lhand -45.33583584823977 -73.19216986018563
lfingers 7.12502
lthumb -18.093123268969265 -43.97422167193419
rfemur -25.58310243112827 -2.1450087384079968 16.70134187173055
rtibia 54.67706771501234
rfoot -27.30160063788849 -16.454784187556594
rtoes -17.653946132487267
lfemur -21.809585395681772 1.2334586791604365 -18.179226374837906
ltibia 48.65020754526093
lfoot -23.736427103366793 -3.6044873136718563
ltoes -15.426153865172962
16
root 0 0 0 1.4275087620892926 -3.5422226166050477 1.8865594409008783
lowerback 11.967239982018281 0.8948707420844766 -0.0933725411868711
upperback -4.4353374373815875 1.1223825374846175 -0.6296048129836714
thorax -11.55512968591368 0.5155416524100322 -0.8720169912357442
lowerneck -6.094462349729141 1.6530597066706834 4.625316459307848
upperneck 18.44739050750533 3.1574896815343423 -8.270408415002354
head 6.779476891124481 1.1637004319664168 -3.189617429224317
rclavicle -1.7428562756683226E-16 -9.70443512307501E-16
rhumerus 22.229466588367394 15.951839305266391 -46.539578041475224
rradius 74.31563982689246
rwrist 27.893621908502674
rhand -34.857259813063585 -59.76582429096841
rfingers 7.12502
rthumb -8.017160400472397 -89.57827638336727
lclavicle -1.7281078691915387E-16 -9.490206679076613E-16
lhumerus 22.788843800141937 -12.79456842618692 43.6350650555152
lradius 71.31724856180173
lwrist -23.634526796156948
lhand -45.33513197831205 -73.1885477332165
lfingers 7.12502
lthumb -18.092458132163493 -43.970636602407396
rfemur -25.59299477703066 -2.149703334972183 16.694367131153815
rtibia 54.687974569754786
rfoot -27.313790547440938 -16.461443772016974
rtoes -17.667840961557744
lfemur -21.80120290928918 1.231352963310769 -18.18082177053509
ltibia 48.638313683968015
lfoot -23.727408942155037 -3.603750991053957
ltoes -15.419029524017741
17
root 0 0 0 1.4266457790812974 -3.5391673550791887 1.889884689115864
lowerback 11.966908393335146 0.8930748693703758 -0.0975897285022993
upperback -4.43409770471879 1.1195357701436999 -0.6291956764981838
thorax -11.55381267804631 0.514250175122326 -0.8687545448010104
lowerneck -6.096326997620354 1.6526193478333908 4.623514002798095
upperneck 18.44744683941381 3.1565891760076554 -8.268972185067675
head 6.779747700043513 1.1633279825508631 -3.1888753887211956
rclavicle -1.7492347018201196E-16 -9.706862353132451E-16
rhumerus 22.21543312355235 15.943120731655123 -46.548385778578236
rradius 74.30325195505966
rwrist 27.887290429517954
rhand -34.852713072105104 -59.7451069693151
rfingers 7.12502
rthumb -8.012687014527343 -89.5577016392687
lclavicle -1.7324165310555628E-16 -9.483584778872749E-16
lhumerus 22.78705619523674 -12.793881017327182 43.63654999641207
lradius 71.31566278523718
lwrist -23.63315951280834
lhand -45.334447276305916 -73.18373870890487
lfingers 7.12502
lthumb -18.091500839526034 -43.96713671418195
rfemur -25.585719305286247 -2.146061323537415 16.699714273252656
rtibia 54.679420196557906
rfoot -27.30416213543565 -16.456791857590506
rtoes -17.65735070824104
lfemur -21.812336610825298 1.2343184279363093 -18.179015329174852
ltibia 48.65454211796656
lfoot -23.73943640234591 -3.6050210705546437
ltoes -15.429132750177788
18
root 0 0 0 1.4269774291612594 -3.5398694426827566 1.889361301860493
lowerback 11.967070818553147 0.8934970592452733 -0.09669862789008032
upperback -4.434574399090892 1.1201955558878556 -0.6294052564296889
thorax -11.554380332136471 0.5145558616561153 -0.8696098326329723
lowerneck -6.095431159181273 1.652918358677846 4.62424262827244
upperneck 18.447398124818523 3.1570805092361574 -8.269700030039743
head 6.7795966608524285 1.1635280409177962 -3.1891956011965843
rclavicle -1.7443202017249857E-16 -9.704722888190959E-16
rhumerus 22.224496998341444 15.948593231350829 -46.5426029191545
rradius 74.31101446420367
rwrist 27.891360224358994
rhand -34.85563671376376 -59.75801807039667
rfingers 7.12502
rthumb -8.01555584201651 -89.57050914388002
lclavicle -1.727622408132874E-16 -9.490163835856221E-16
lhumerus 22.791009344694455 -12.795136081587145 43.63352458296598
lradius 71.31896742569134
lwrist -23.63569494969702
lhand -45.33588782533468 -73.19236366193142
lfingers 7.12502
lthumb -18.09317573690982 -43.97433843939646
rfemur -25.58884996215784 -2.147684605082266 16.697356167679153
rtibia 54.683293523927674
rfoot -27.308378315205843 -16.45852099900783
rtoes -17.661761926985708
lfemur -21.807491523637125 1.233074399775045 -18.179736639524943
ltibia 48.64805038933724
lfoot -23.73457160698038 -3.6046344751337056
ltoes -15.425051313500392
